<svg version="1.1" id="Layer_1" xmlns="http://www.w3.org/2000/svg" xmlns:xlink="http://www.w3.org/1999/xlink" x="0px" y="0px"
	 width="100%" viewBox="0 0 631 955" enable-background="new 0 0 631 955" xml:space="preserve">
<path fill="#0C3526" opacity="1.000000" stroke="none" 
	d="
M632.000000,312.000000 
	C632.000000,527.000000 632.000000,741.500000 632.000000,956.000000 
	C421.666656,956.000000 211.333328,956.000000 1.000000,956.000000 
	C1.000000,637.666687 1.000000,319.333344 1.000000,1.000000 
	C211.333328,1.000000 421.666656,1.000000 632.000000,1.000000 
	C632.000000,104.500000 632.000000,208.000000 632.000000,312.000000 
M364.090149,927.500854 
	C364.035950,927.326782 363.981750,927.152710 363.992981,926.150208 
	C363.405853,921.774414 366.678680,922.280945 369.179932,922.276672 
	C399.475403,922.224609 429.771179,922.190491 460.066559,922.265076 
	C511.707153,922.392212 563.347534,922.601562 614.988098,922.754944 
	C615.599121,922.756775 616.210999,922.473389 616.677673,922.358643 
	C616.677673,626.805115 616.677673,331.493286 616.677673,36.000076 
	C614.538391,36.000076 612.720459,36.000076 610.902527,36.000076 
	C530.596069,36.000076 450.289581,36.000084 369.983124,36.000031 
	C368.816833,36.000027 367.448730,36.381527 366.536560,35.899864 
	C365.452057,35.327209 364.759369,34.012524 364.072540,32.266151 
	C364.013977,31.499441 363.955444,30.732731 363.990295,29.237764 
	C363.959259,28.505552 363.928223,27.773340 364.070740,26.356661 
	C364.012909,25.893129 363.955048,25.429596 363.990417,24.232439 
	C363.955627,23.495365 363.920837,22.758293 364.057953,21.109884 
	C364.000885,17.396711 363.943787,13.683538 363.923096,9.449717 
	C363.626770,9.337561 363.330475,9.225405 362.279388,8.941536 
	C361.511902,8.998776 360.744446,9.056017 359.328247,9.011403 
	C358.893127,9.045355 358.458008,9.079308 357.224640,8.941323 
	C356.142090,8.998633 355.059509,9.055944 353.328247,9.011401 
	C352.893127,9.045354 352.458008,9.079306 351.199646,8.941314 
	C349.800385,8.974598 348.401093,9.007883 346.087585,8.907561 
	C342.383026,8.969681 338.678467,9.031800 334.097137,9.009780 
	C331.742188,9.247804 329.387268,9.485827 325.890076,9.243753 
	C325.632782,9.566823 325.375488,9.889893 325.046600,10.249636 
	C325.046600,10.249636 324.709564,10.187726 322.946198,9.086453 
	C321.670197,9.461960 320.394196,9.837465 319.046570,10.249629 
	C319.046570,10.249629 318.709534,10.187722 316.961548,9.086402 
	C315.692810,9.458035 314.424103,9.829669 313.084961,10.236961 
	C313.084961,10.236961 312.768738,10.189890 311.036163,9.087255 
	C309.773926,9.454717 308.511719,9.822180 307.171326,10.242130 
	C307.171326,10.242130 306.828766,10.203531 305.079742,9.088503 
	C303.802582,9.455449 302.525452,9.822394 301.170105,10.241761 
	C301.170105,10.241761 300.827087,10.203051 300.091125,9.236112 
	C299.712921,9.381168 299.334747,9.526224 298.652130,9.062808 
	C296.109955,9.073186 293.567780,9.083564 290.123138,8.912981 
	C286.748840,8.947513 283.374512,8.982044 279.143219,8.900130 
	C277.420135,8.962988 275.697083,9.025846 273.326172,9.008790 
	C272.892639,9.035475 272.459137,9.062159 271.349396,8.910341 
	C270.890900,8.969969 270.432373,9.029597 269.190826,9.020616 
	C268.823547,10.338526 268.456268,11.656435 267.907776,13.825691 
	C267.968384,15.559199 268.028992,17.292707 268.009064,19.946390 
	C268.053009,23.959568 268.096954,27.972748 267.978607,32.763939 
	C267.938690,33.821762 267.898804,34.879585 266.940826,35.994450 
	C183.036209,35.994450 99.131599,35.994450 15.319922,35.994450 
	C15.319922,331.763428 15.319922,626.928650 15.319922,922.782593 
	C55.607391,922.782593 95.575714,922.853271 135.543671,922.762939 
	C177.187363,922.668884 218.830673,922.404846 260.474335,922.274231 
	C262.936310,922.266541 265.399902,922.785095 267.957001,923.796997 
	C268.019775,924.535339 268.082581,925.273621 268.016724,926.665527 
	C268.061157,927.810974 268.105591,928.956482 268.094055,930.174683 
	C268.094055,930.174683 268.108185,930.341614 267.980103,931.293823 
	C268.030090,933.199646 268.080078,935.105408 267.994751,937.659241 
	C268.024597,938.098328 268.054413,938.537476 267.903076,939.681152 
	C268.016113,941.312134 268.129181,942.943115 268.023560,945.291138 
	C268.674072,946.494019 269.324585,947.696960 270.805939,949.076538 
	C272.215302,949.017578 273.624634,948.958618 275.762421,948.990784 
	C276.494568,948.960388 277.226715,948.929932 278.492004,949.055176 
	C278.669708,949.003235 278.847443,948.951355 279.869080,948.990540 
	C281.565613,948.962830 283.262115,948.935120 285.642944,949.084717 
	C286.106689,949.025696 286.570404,948.966614 287.816406,948.991577 
	C288.863831,948.963562 289.911255,948.935608 291.643127,949.085022 
	C292.106995,949.025940 292.570862,948.966919 293.827850,948.991882 
	C294.757721,948.736938 295.687592,948.481995 296.721680,948.420776 
	C296.721680,948.420776 296.936310,948.468628 297.506531,948.919495 
	C297.696014,948.768372 297.885468,948.617310 298.292694,948.415466 
	C298.292694,948.415466 298.390442,948.214355 298.842621,948.914734 
	C300.099152,948.679382 301.355713,948.444031 302.705627,948.409119 
	C302.705627,948.409119 302.920288,948.462280 303.496002,948.919800 
	C303.688965,948.768677 303.881958,948.617554 304.292755,948.415527 
	C304.292755,948.415527 304.390472,948.214355 304.842743,948.914612 
	C306.099243,948.679260 307.355774,948.443909 308.705566,948.408997 
	C308.705566,948.408997 308.920044,948.462219 309.957550,948.934631 
	C310.318146,948.814758 310.678711,948.694885 311.160950,948.472168 
	C311.160950,948.472168 311.363342,948.222961 311.685120,948.914917 
	C312.443207,948.909241 313.201263,948.903564 314.762848,949.074036 
	C315.853180,949.015137 316.943481,948.956299 318.910156,948.990723 
	C321.259674,948.959534 323.609222,948.928406 326.715057,949.072815 
	C327.484680,949.014343 328.254272,948.955872 329.807434,948.990662 
	C330.857941,948.962646 331.908478,948.934631 333.715088,949.086182 
	C334.485046,949.026245 335.255035,948.966370 336.756073,948.990784 
	C337.490448,948.963806 338.224792,948.936829 339.718140,949.087036 
	C340.490601,949.028076 341.263031,948.969055 342.769562,948.991272 
	C343.505585,948.956116 344.241608,948.920898 345.652069,949.055481 
	C346.108673,948.998657 346.565277,948.941833 347.805145,948.988586 
	C348.856415,948.954712 349.907654,948.920776 351.762756,949.058716 
	C352.852600,949.001404 353.942444,948.944092 355.672180,948.988708 
	C356.101471,948.954773 356.530792,948.920837 357.814667,949.058777 
	C359.553101,949.001526 361.291504,948.944275 363.550842,948.922974 
	C363.662842,948.626404 363.774811,948.329834 364.058777,947.141479 
	C364.008789,944.424316 363.958771,941.707214 364.019318,938.322571 
	C363.964874,937.877930 363.910461,937.433228 363.986816,936.195374 
	C363.727417,935.256165 363.468048,934.316956 363.766907,933.104980 
	C363.581726,932.611023 363.396515,932.117004 363.914124,931.227112 
	C363.918640,930.159119 363.923126,929.091125 364.090149,927.500854 
z"/>
<path fill="#FFFFFF" opacity="1.000000" stroke="none" 
	d="
M363.896912,33.019363 
	C364.759369,34.012524 365.452057,35.327209 366.536560,35.899864 
	C367.448730,36.381527 368.816833,36.000027 369.983124,36.000031 
	C450.289581,36.000084 530.596069,36.000076 610.902527,36.000076 
	C612.720459,36.000076 614.538391,36.000076 616.677673,36.000076 
	C616.677673,331.493286 616.677673,626.805115 616.677673,922.358643 
	C616.210999,922.473389 615.599121,922.756775 614.988098,922.754944 
	C563.347534,922.601562 511.707153,922.392212 460.066559,922.265076 
	C429.771179,922.190491 399.475403,922.224609 369.179932,922.276672 
	C366.678680,922.280945 363.405853,921.774414 363.777679,926.724487 
	C363.562378,927.298767 363.142761,927.543457 362.865875,927.394775 
	C362.391388,927.176575 362.193817,927.106934 362.006836,926.806702 
	C362.017456,926.576172 362.037872,926.115112 362.254517,925.821045 
	C362.181183,924.725159 361.872284,923.218811 361.604004,923.226013 
	C356.665283,923.358337 351.731445,923.671753 346.419037,923.964355 
	C342.682556,924.322205 339.491913,924.668579 335.931458,924.351135 
	C324.774109,923.356567 313.481873,923.931702 302.243622,923.773682 
	C290.782227,923.612427 279.322968,923.303223 267.862762,923.058716 
	C265.399902,922.785095 262.936310,922.266541 260.474335,922.274231 
	C218.830673,922.404846 177.187363,922.668884 135.543671,922.762939 
	C95.575714,922.853271 55.607391,922.782593 15.319922,922.782593 
	C15.319922,626.928650 15.319922,331.763428 15.319922,35.994450 
	C99.131599,35.994450 183.036209,35.994450 267.763489,35.967411 
	C276.239288,35.569389 283.889374,35.026924 291.546661,34.892059 
	C296.102814,34.811817 300.669250,35.568539 305.232880,35.591976 
	C310.125763,35.617104 315.039886,34.858223 319.909729,35.112347 
	C325.089539,35.382652 330.243286,36.509781 333.150604,33.048313 
	C338.423950,33.048313 342.613525,33.048313 346.862396,33.457809 
	C348.865906,35.958767 360.472717,36.923359 362.362030,35.017456 
	C362.824066,34.551338 362.653259,33.457893 363.060944,32.724159 
	C363.531281,32.870079 363.714081,32.944721 363.896912,33.019363 
M260.393250,182.720215 
	C257.303589,178.637085 253.205582,177.855896 248.207214,177.889526 
	C215.878799,178.107086 183.548187,178.000961 151.218307,178.000961 
	C149.601318,178.000961 147.984344,178.000961 145.951874,178.000961 
	C145.951874,133.153442 145.951874,88.753395 145.951874,44.178654 
	C111.092232,44.178654 76.655991,44.178654 42.543541,44.178654 
	C39.828259,54.516502 32.910862,59.720558 23.203304,61.427773 
	C23.203304,200.378433 23.203304,338.978210 23.203304,477.788391 
	C94.472641,477.788391 165.539673,477.788391 236.595367,477.788391 
	C239.345413,428.285248 276.995789,402.616516 310.542206,400.067291 
	C331.912842,398.443298 351.293549,404.374664 367.653992,418.300110 
	C385.819794,433.762177 394.968262,453.945099 396.150085,477.745361 
	C466.878571,477.745361 537.279663,477.745361 607.823059,477.745361 
	C607.823059,338.729034 607.823059,199.966415 607.823059,61.227676 
	C599.586243,59.636803 593.319458,55.369213 590.480347,47.648632 
	C589.231323,44.252083 587.609253,43.966877 584.781189,43.971050 
	C552.784668,44.018284 520.788086,44.001011 488.791473,44.001022 
	C487.668488,44.001026 486.545502,44.001022 485.004028,44.001022 
	C485.004028,88.797783 485.004028,133.197830 485.004028,178.000961 
	C482.976471,178.000961 481.347900,178.000961 479.719330,178.000961 
	C448.889282,178.000961 418.059235,177.991348 387.229187,178.009659 
	C381.560181,178.013016 375.469360,176.712112 371.553314,182.666351 
	C371.318085,182.482193 371.082886,182.298035 371.021423,181.378372 
	C371.538177,180.324677 372.054932,179.270996 372.430908,178.504318 
	C334.496674,178.504318 296.765686,178.504318 258.324768,178.504318 
	C259.787903,180.109848 260.674255,181.082458 260.393250,182.720215 
M366.691986,771.032654 
	C369.046356,773.099976 372.197266,774.745789 373.566986,777.334106 
	C375.583679,781.145020 378.429321,781.025757 381.765991,781.021423 
	C410.430725,780.984253 439.095673,780.960388 467.760284,781.034668 
	C473.374573,781.049194 478.987732,781.505493 485.038635,781.777771 
	C485.038635,826.198303 485.038635,870.432007 485.038635,914.812317 
	C519.911438,914.812317 554.332520,914.812317 589.090942,914.812317 
	C590.855835,906.682068 595.731201,900.733337 603.465454,898.492859 
	C607.620178,897.289307 608.053650,895.643311 608.052063,892.130310 
	C607.989624,756.639038 607.999084,621.147827 607.999023,485.656586 
	C607.999023,484.212524 607.999084,482.768463 607.999084,481.239380 
	C537.089294,481.239380 466.674683,481.239380 396.278290,481.239380 
	C392.984314,525.139404 362.304718,553.844849 324.519379,557.853088 
	C300.800018,560.369263 279.436371,553.375488 261.901154,537.013916 
	C245.867172,522.053162 237.742371,503.045959 236.756775,481.345856 
	C165.262573,481.345856 94.198997,481.345856 23.201223,481.345856 
	C23.107643,481.849121 23.052410,482.007477 23.052387,482.165802 
	C23.032839,619.323120 23.027027,756.480408 22.935553,893.637634 
	C22.933535,896.662598 24.486292,897.073364 26.743393,898.150513 
	C30.469555,899.928528 33.728142,902.686401 36.589493,905.682922 
	C32.370636,903.386719 28.902510,899.177795 23.231779,900.169312 
	C23.231779,905.189453 23.231779,909.916748 23.231779,914.644348 
	C28.939011,914.644348 34.407047,914.644348 40.069321,914.644348 
	C38.992302,911.157104 38.033218,908.051758 37.729904,905.198242 
	C38.850800,906.959351 40.510647,908.588440 40.981323,910.508911 
	C41.987640,914.614807 44.466640,915.094727 48.170853,915.078125 
	C79.141884,914.939148 110.113800,914.999146 141.085449,914.999084 
	C142.671875,914.999084 144.258301,914.999084 146.166107,914.999084 
	C146.166107,870.107666 146.166107,825.878540 146.166107,781.215942 
	C147.947571,781.215942 149.404953,781.218628 150.862320,781.215515 
	C183.993607,781.144043 217.124893,781.037598 250.256134,781.058105 
	C253.271866,781.059998 255.371536,780.300964 257.563293,778.047363 
	C275.852081,759.242615 297.737610,750.075012 324.351257,752.879761 
	C335.036011,754.005737 344.870056,757.210144 354.210358,762.132019 
	C356.837402,763.516418 358.826508,766.111267 360.372162,768.010010 
	C356.329285,765.686829 352.486359,762.873352 348.207703,761.128235 
	C332.579926,754.753723 316.540833,752.018616 299.680725,755.936707 
	C283.225250,759.760742 269.364349,767.595093 257.992493,780.798096 
	C296.861603,780.798096 335.168274,780.798096 373.474945,780.798096 
	C373.742523,780.470703 374.010071,780.143311 374.277649,779.815979 
	C372.767609,778.627869 371.071533,777.608948 369.796631,776.206970 
	C368.339630,774.604858 367.257324,772.661987 366.691986,771.032654 
M193.500000,44.000988 
	C179.407806,44.000988 165.315628,44.000988 151.298279,44.000988 
	C151.298279,87.320961 151.298279,130.045166 151.298279,172.727448 
	C260.969452,172.727448 370.343079,172.727448 479.727722,172.727448 
	C479.727722,129.731262 479.727722,87.007240 479.727722,44.277390 
	C450.727814,44.277390 422.000092,44.277390 392.850677,44.277390 
	C392.850677,57.618908 392.850677,70.689812 392.850677,83.718918 
	C341.371124,83.718918 290.315491,83.718918 238.837585,83.718918 
	C238.837585,70.371498 238.837585,57.300617 238.837585,44.000988 
	C223.776947,44.000988 209.138474,44.000988 193.500000,44.000988 
M479.999054,878.500000 
	C479.999054,847.747009 479.999054,816.994019 479.999054,786.266479 
	C370.043152,786.266479 260.669525,786.266479 151.266296,786.266479 
	C151.266296,829.256592 151.266296,871.980652 151.266296,914.728760 
	C180.593338,914.728760 209.654236,914.728760 239.136963,914.728760 
	C239.136963,901.060242 239.136963,887.656250 239.136963,874.274902 
	C290.616394,874.274902 341.672028,874.274902 393.149933,874.274902 
	C393.149933,887.949158 393.149933,901.353149 393.149933,914.707764 
	C422.302094,914.707764 451.029938,914.707764 479.999054,914.707764 
	C479.999054,902.778564 479.999054,891.139282 479.999054,878.500000 
M274.500000,477.999237 
	C284.655914,477.999237 294.816223,478.159027 304.964569,477.881531 
	C307.361542,477.816010 310.135925,476.801910 312.004272,475.308075 
	C315.588104,472.442719 318.425476,472.453278 322.005005,475.316406 
	C323.872284,476.809906 326.660614,477.860443 329.045929,477.885712 
	C348.190063,478.088745 367.337250,478.003693 386.483521,477.990356 
	C387.936371,477.989349 389.389130,477.862030 391.159363,477.778442 
	C388.999390,450.221832 377.695312,428.386444 353.348114,414.927826 
	C324.912445,399.209198 296.925446,401.367157 271.235352,420.915680 
	C252.851578,434.904541 243.304367,454.191193 242.940918,477.999237 
	C253.563492,477.999237 263.531738,477.999237 274.500000,477.999237 
M389.059418,493.605774 
	C389.794586,489.544556 390.529755,485.483337 391.341095,481.001343 
	C368.913544,481.001343 347.282898,480.970581 325.653168,481.091583 
	C324.564026,481.097656 323.205444,482.197327 322.445343,483.160919 
	C319.296356,487.152802 314.976471,487.196442 311.779510,483.445862 
	C310.736084,482.221802 308.773438,481.140686 307.207367,481.107117 
	C297.383148,480.896729 287.552185,481.000763 277.723450,481.000763 
	C266.270721,481.000763 254.817993,481.000763 243.117035,481.000763 
	C243.065567,482.037659 242.974884,482.667358 243.012039,483.289398 
	C244.170868,502.697357 251.720474,519.167603 265.958069,532.427124 
	C286.612610,551.662781 310.906006,557.922363 337.777069,549.777588 
	C365.180939,541.471436 382.578674,522.773132 389.059418,493.605774 
M270.500000,876.000916 
	C260.739868,876.000916 250.979721,876.000916 241.308319,876.000916 
	C241.308319,889.330566 241.308319,902.062256 241.308319,914.701416 
	C291.334137,914.701416 341.052063,914.701416 390.691833,914.701416 
	C390.691833,901.669800 390.691833,888.938049 390.691833,876.000916 
	C350.756653,876.000916 311.128326,876.000916 270.500000,876.000916 
M314.500000,81.999046 
	C339.919006,81.999046 365.338043,81.999046 390.699646,81.999046 
	C390.699646,69.018944 390.699646,56.620651 390.699646,44.290497 
	C340.681915,44.290497 290.964203,44.290497 241.300140,44.290497 
	C241.300140,56.980618 241.300140,69.378868 241.300140,81.999046 
	C265.565765,81.999046 289.532867,81.999046 314.500000,81.999046 
M30.510607,44.000988 
	C28.087780,44.000988 25.664951,44.000988 23.207455,44.000988 
	C23.207455,49.319912 23.207455,54.065990 23.207455,58.839359 
	C32.598572,57.495312 38.713356,52.123508 39.847286,44.000988 
	C37.020393,44.000988 34.246719,44.000988 30.510607,44.000988 
M607.992310,913.286072 
	C607.992310,908.977783 607.992310,904.669434 607.992310,900.380066 
	C599.802551,899.955505 592.069885,907.142944 592.310364,915.303101 
	C597.521118,914.949646 602.723206,914.596741 607.992310,913.286072 
M607.999023,47.632450 
	C608.127869,45.559978 608.301331,43.735931 605.117493,43.935173 
	C600.840393,44.202827 596.533997,44.001514 592.210266,44.001514 
	C593.052490,51.820660 598.957825,57.212692 607.999084,58.539204 
	C607.999084,55.204048 607.999084,51.896767 607.999023,47.632450 
z"/>
<path fill="#F0F0F0" opacity="1.000000" stroke="none" 
	d="
M362.037872,926.115112 
	C362.037872,926.115112 362.017456,926.576172 361.798950,927.027710 
	C356.716187,928.864136 350.656525,925.446167 346.641907,931.363464 
	C345.142029,932.592163 343.865417,933.599182 342.588776,934.606201 
	C342.046753,933.289795 341.504730,931.973389 340.973358,930.682861 
	C338.291656,935.646301 337.459015,935.818848 334.011414,932.014587 
	C333.924835,931.956970 333.742615,931.856812 333.813171,931.459900 
	C334.388916,926.324768 332.168823,926.103638 328.368347,927.964111 
	C324.057434,927.981201 320.085571,927.973999 315.828064,927.722168 
	C313.664154,927.642578 311.785889,927.807556 309.536316,927.991821 
	C305.173706,927.991272 301.182434,927.971375 296.910828,927.674744 
	C292.325073,925.978333 291.481934,928.097961 292.173370,932.167480 
	C293.930084,933.374390 295.627655,934.757507 297.423004,934.898804 
	C305.464142,935.531738 313.529755,935.980408 321.593567,936.138855 
	C325.069519,936.207092 328.562500,935.410217 332.338318,935.175842 
	C333.092072,936.552856 333.555237,937.760437 333.564575,938.951904 
	C329.725250,939.260986 326.339691,939.586182 322.521088,939.938049 
	C320.164246,939.741272 318.215088,939.645874 316.321564,939.270203 
	C310.786591,938.172058 309.589386,939.160278 310.057800,944.862793 
	C310.160950,946.118530 310.700592,947.338501 311.039276,948.574951 
	C310.678711,948.694885 310.318146,948.814758 309.461853,948.204956 
	C308.952637,945.356628 309.131561,943.209778 308.827240,941.133667 
	C308.711487,940.344177 307.372162,939.062927 306.790283,939.163330 
	C305.812225,939.332092 304.350189,940.331970 304.229858,941.149658 
	C303.877441,943.544312 304.086060,946.021484 304.074890,948.466370 
	C303.881958,948.617554 303.688965,948.768677 303.230835,948.197632 
	C302.951630,945.356567 303.130035,943.209351 302.825256,941.133118 
	C302.709351,940.343567 301.370056,939.062561 300.787933,939.162964 
	C299.810242,939.331543 298.348572,940.331665 298.228485,941.149048 
	C297.876617,943.543945 298.085632,946.021301 298.074951,948.466309 
	C297.885468,948.617310 297.696014,948.768372 297.238220,948.199219 
	C296.983093,945.992493 297.309357,944.418274 296.923767,943.043701 
	C296.517731,941.596436 295.431335,940.340149 294.642212,939.000366 
	C293.763550,940.243958 292.720825,941.408020 292.065338,942.759766 
	C291.645966,943.624756 291.798523,944.767090 291.694641,945.785034 
	C291.078308,944.474365 291.312073,943.071533 290.868195,941.932739 
	C290.431702,940.812744 289.307648,939.960754 288.485321,938.991150 
	C287.666443,939.959106 286.559021,940.811035 286.109833,941.927734 
	C285.661194,943.042908 285.871643,944.423218 285.793152,945.687256 
	C284.974579,944.666565 285.277557,943.560547 284.907257,942.769836 
	C284.270813,941.410706 283.214417,940.248291 282.334351,939.003357 
	C281.555573,940.184509 280.456635,941.274109 280.085602,942.571838 
	C279.692474,943.946838 279.991272,945.519653 279.744751,947.005371 
	C279.501587,947.004639 279.015076,947.008667 279.002441,946.560425 
	C278.992615,939.067749 278.992615,939.068726 271.903015,938.959961 
	C271.249298,938.949951 270.596008,938.915833 269.903259,938.603760 
	C269.286041,937.880127 268.708069,937.445679 268.130066,937.011230 
	C268.080078,935.105408 268.030090,933.199646 268.464111,931.275391 
	C269.763855,932.680664 270.293243,934.474854 271.492767,935.402100 
	C272.337860,936.055420 274.530945,936.071838 275.345154,935.412720 
	C276.758240,934.268921 277.569916,932.382202 278.633759,930.806946 
	C276.088013,929.870789 273.542297,928.934631 270.754883,927.820801 
	C269.723907,927.099426 268.934631,926.555725 268.145386,926.011963 
	C268.082581,925.273621 268.019775,924.535339 267.909882,923.427856 
	C279.322968,923.303223 290.782227,923.612427 302.243622,923.773682 
	C313.481873,923.931702 324.774109,923.356567 335.931458,924.351135 
	C339.491913,924.668579 342.682556,924.322205 346.556274,924.367065 
	C348.505524,925.175659 349.923676,925.882568 351.377625,925.966125 
	C354.922211,926.169617 358.483368,926.084167 362.037872,926.115112 
M284.883514,930.269531 
	C283.884186,929.199890 282.884827,928.130249 281.885468,927.060608 
	C281.270050,928.020630 280.654633,928.980652 280.039215,929.940674 
	C281.565308,930.302673 283.091400,930.664734 284.883514,930.269531 
M287.674774,931.853394 
	C288.749939,930.842041 289.825104,929.830627 290.900330,928.819214 
	C289.745422,928.257568 288.590515,927.695862 287.435608,927.134216 
	C287.260651,928.623413 287.085663,930.112549 287.674774,931.853394 
z"/>
<path fill="#EDEDED" opacity="1.000000" stroke="none" 
	d="
M346.803101,33.048309 
	C342.613525,33.048313 338.423950,33.048313 333.150604,33.048313 
	C330.243286,36.509781 325.089539,35.382652 319.909729,35.112347 
	C315.039886,34.858223 310.125763,35.617104 305.232880,35.591976 
	C300.669250,35.568539 296.102814,34.811817 291.546661,34.892059 
	C283.889374,35.026924 276.239288,35.569389 268.222534,35.938889 
	C267.898804,34.879585 267.938690,33.821762 268.359619,32.323448 
	C269.518860,31.257250 270.297119,30.631544 271.387207,30.145721 
	C274.005432,29.246056 276.386475,28.326227 278.513214,26.998856 
	C278.749847,26.851156 277.538635,24.383644 277.195740,22.758596 
	C278.171722,22.324396 278.950836,22.123583 279.801575,22.344479 
	C280.272827,25.548485 279.371429,29.400385 284.975647,28.505386 
	C284.975647,25.917307 284.975647,23.491730 284.971130,21.044838 
	C284.966614,21.023523 285.002686,20.998915 285.336670,20.977329 
	C285.893158,20.971748 286.115692,20.987751 286.207275,21.420887 
	C285.980438,28.366241 286.112122,28.559916 290.933716,28.275942 
	C290.933716,25.895300 290.933716,23.469826 291.207886,21.032995 
	C291.664703,21.020655 291.847382,21.019669 292.005310,21.441612 
	C292.760651,24.086338 293.882172,28.290695 294.268372,28.224199 
	C298.268158,27.535559 296.710632,24.069809 297.015930,21.499920 
	C297.035004,21.339231 296.998138,21.171898 297.258331,21.011200 
	C297.709717,21.025824 297.890076,21.036898 298.044861,21.452572 
	C298.466949,24.130623 298.914581,26.404074 299.402496,28.882139 
	C304.323669,27.123587 302.685089,23.711424 303.223083,20.998859 
	C303.459534,20.989494 303.932465,20.971157 303.994873,21.008656 
	C304.057281,21.046152 304.183105,21.119406 304.116882,21.511547 
	C304.441864,24.105402 304.833069,26.307114 305.239716,28.595703 
	C310.171326,27.936010 308.544952,24.277233 309.585693,21.969215 
	C310.226807,22.326155 310.616333,22.633694 310.862152,23.279602 
	C309.473206,26.141714 309.922607,28.371529 312.630463,29.248354 
	C314.684540,29.913471 317.047821,29.548391 319.225800,29.920786 
	C324.568481,30.834270 329.740204,31.179329 334.297424,26.991489 
	C334.721161,27.009453 334.890656,27.016026 335.218750,27.275707 
	C336.817474,27.667971 338.257660,27.807119 340.100098,27.955530 
	C340.768982,27.958544 341.035583,27.952299 341.568298,28.071455 
	C343.202332,27.804831 344.570190,27.412804 346.193909,27.011614 
	C346.620178,26.992489 346.790588,26.982529 347.132782,27.260406 
	C348.870331,28.688560 350.436035,29.828875 352.009155,31.201626 
	C352.016571,31.434065 352.040863,31.897943 351.641113,31.915066 
	C349.761932,32.304230 348.282501,32.676270 346.803101,33.048309 
z"/>
<path fill="#DBDBDB" opacity="1.000000" stroke="none" 
	d="
M353.976959,9.113256 
	C355.059509,9.055944 356.142090,8.998633 357.646820,9.307561 
	C358.393555,9.958075 358.718140,10.242351 359.042694,10.526630 
	C359.354126,10.055510 359.665558,9.584385 359.976959,9.113258 
	C360.744446,9.056017 361.511902,8.998776 362.730713,9.228844 
	C363.350891,9.770010 363.585815,9.921414 363.886719,9.970366 
	C363.943787,13.683538 364.000885,17.396711 363.740723,21.514206 
	C363.423523,21.918530 362.953918,21.855661 362.871643,21.699131 
	C362.659241,21.342783 362.498901,21.171194 361.951416,20.758236 
	C359.822754,20.322285 358.051849,20.022476 356.279205,20.011869 
	C346.846344,19.955423 346.846191,19.980505 346.966553,10.310593 
	C346.956390,9.718678 346.979095,9.379922 347.001831,9.041166 
	C348.401093,9.007883 349.800385,8.974598 351.634338,9.307571 
	C352.393585,9.958106 352.718201,10.242382 353.042786,10.526661 
	C353.354187,10.055529 353.665558,9.584394 353.976959,9.113256 
z"/>
<path fill="#E5E5E5" opacity="1.000000" stroke="none" 
	d="
M307.249481,10.189635 
	C308.511719,9.822180 309.773926,9.454717 311.515198,9.964211 
	C311.468506,11.672946 310.652191,12.453458 310.493988,13.350101 
	C310.315277,14.362842 310.361969,15.925935 310.980530,16.433748 
	C311.683075,17.010540 313.509521,17.153673 314.151581,16.630838 
	C314.944580,15.985102 315.477539,14.374598 315.284515,13.336892 
	C315.072845,12.199051 313.906006,11.238883 313.155365,10.201297 
	C314.424103,9.829669 315.692810,9.458035 317.478516,10.008623 
	C317.763000,11.368117 317.287689,11.837974 317.341187,12.236868 
	C317.544495,13.751913 317.846649,15.269151 318.346893,16.703621 
	C318.393951,16.838600 320.876160,16.455492 320.893585,16.215946 
	C321.006256,14.665709 320.859985,13.066022 320.549957,11.532821 
	C320.445770,11.017437 319.616211,10.648718 319.118195,10.212969 
	C320.394196,9.837465 321.670197,9.461960 323.470825,10.008644 
	C323.700775,11.669531 323.123596,12.428560 323.174988,13.142344 
	C323.260284,14.327175 323.533173,15.630100 324.177216,16.577097 
	C324.428009,16.945833 326.589569,16.696512 326.691376,16.364265 
	C327.081573,15.090929 327.236938,13.621367 326.984253,12.321386 
	C326.829956,11.527661 325.770905,10.909814 325.118195,10.212969 
	C325.375488,9.889893 325.632782,9.566823 326.910675,9.944656 
	C328.319977,10.804338 328.708649,10.963115 329.076599,11.535119 
	C328.404419,15.866419 329.917023,17.667294 333.965790,17.390106 
	C333.057587,18.533129 332.155701,19.898188 331.261719,19.893045 
	C324.011078,19.851332 316.762634,19.481256 309.511536,19.406317 
	C308.369415,19.394514 307.217163,20.364248 305.756195,20.933796 
	C305.022919,21.031429 304.602997,21.075418 304.183105,21.119408 
	C304.183105,21.119406 304.057281,21.046152 303.938141,20.659878 
	C299.552490,19.855652 295.285950,19.437698 291.020172,18.753365 
	C291.025787,18.309467 291.030701,18.131947 291.238159,17.843746 
	C291.682495,17.532473 291.868042,17.289001 292.415863,17.008930 
	C297.962097,17.639568 296.907013,13.996996 297.506104,10.845731 
	C298.379211,10.289613 298.667877,9.980450 298.956543,9.671284 
	C299.334747,9.526224 299.712921,9.381168 300.060181,10.043112 
	C299.630646,11.375299 298.949127,11.870518 298.889679,12.431632 
	C298.746002,13.787867 298.747101,15.208555 299.050629,16.519737 
	C299.108215,16.768488 301.448761,16.986948 301.665833,16.607359 
	C302.324829,15.455195 302.717346,14.000328 302.703522,12.668661 
	C302.694855,11.837264 301.764832,11.015454 301.248291,10.189341 
	C302.525452,9.822394 303.802582,9.455449 305.555176,9.969173 
	C305.632263,11.375040 304.951080,11.870337 304.891754,12.431370 
	C304.748413,13.787637 304.749878,15.208255 305.053467,16.519447 
	C305.111023,16.767994 307.451202,16.986042 307.668182,16.606512 
	C308.326782,15.454481 308.718994,13.999874 308.704865,12.668522 
	C308.696014,11.837167 307.766083,11.015593 307.249481,10.189635 
z"/>
<path fill="#DBDBDB" opacity="1.000000" stroke="none" 
	d="
M363.908752,938.990051 
	C363.958771,941.707214 364.008789,944.424316 363.771362,947.661621 
	C363.230103,948.350830 363.078735,948.585876 363.029938,948.886963 
	C361.291504,948.944275 359.553101,949.001526 357.247742,948.765869 
	C356.131287,948.610962 355.581787,948.748901 355.032288,948.886780 
	C353.942444,948.944092 352.852600,949.001404 351.113342,948.725891 
	C349.305817,948.258118 348.147705,948.123169 346.995453,947.994446 
	C347.001343,948.000671 347.012970,948.012329 347.003296,947.567383 
	C346.997101,944.749878 347.000580,942.377380 347.412201,939.999390 
	C353.183136,939.659302 358.545959,939.324646 363.908752,938.990051 
z"/>
<path fill="#CDCDCD" opacity="1.000000" stroke="none" 
	d="
M279.987885,947.006042 
	C279.991272,945.519653 279.692474,943.946838 280.085602,942.571838 
	C280.456635,941.274109 281.555573,940.184509 282.334351,939.003357 
	C283.214417,940.248291 284.270813,941.410706 284.907257,942.769836 
	C285.277557,943.560547 284.974579,944.666565 285.793152,945.687256 
	C285.871643,944.423218 285.661194,943.042908 286.109833,941.927734 
	C286.559021,940.811035 287.666443,939.959106 288.485321,938.991150 
	C289.307648,939.960754 290.431702,940.812744 290.868195,941.932739 
	C291.312073,943.071533 291.078308,944.474365 291.694641,945.785034 
	C291.798523,944.767090 291.645966,943.624756 292.065338,942.759766 
	C292.720825,941.408020 293.763550,940.243958 294.642212,939.000366 
	C295.431335,940.340149 296.517731,941.596436 296.923767,943.043701 
	C297.309357,944.418274 296.983093,945.992493 296.953094,947.973755 
	C296.936310,948.468628 296.721680,948.420776 296.285950,948.240784 
	C294.911743,948.343140 293.973236,948.625488 293.034729,948.907837 
	C292.570862,948.966919 292.106995,949.025940 291.106689,948.729736 
	C289.391541,948.552063 288.212830,948.729797 287.034149,948.907532 
	C286.570404,948.966614 286.106689,949.025696 285.083008,948.723816 
	C283.011322,947.910645 281.499603,947.458374 279.987885,947.006042 
z"/>
<path fill="#D4D4D4" opacity="1.000000" stroke="none" 
	d="
M311.100098,948.523560 
	C310.700592,947.338501 310.160950,946.118530 310.057800,944.862793 
	C309.589386,939.160278 310.786591,938.172058 316.321564,939.270203 
	C318.215088,939.645874 320.164246,939.741272 322.559601,940.328308 
	C324.660522,941.454041 326.289886,942.216187 327.944031,943.353088 
	C328.324463,944.878418 328.680145,946.028931 329.029114,947.279907 
	C329.022369,947.380371 328.983093,947.577881 328.963013,947.908691 
	C328.969910,948.458862 328.996887,948.678101 329.023895,948.897339 
	C328.254272,948.955872 327.484680,949.014343 326.063354,948.717529 
	C322.952393,948.540588 320.493103,948.718994 318.033813,948.897461 
	C316.943481,948.956299 315.853180,949.015137 314.109833,948.732788 
	C312.759003,948.335266 312.061157,948.279114 311.363342,948.222961 
	C311.363342,948.222961 311.160950,948.472168 311.100098,948.523560 
M324.285156,944.825745 
	C324.856049,944.825745 325.426971,944.825745 325.997864,944.825745 
	C325.977905,944.594421 325.957947,944.363159 325.937988,944.131836 
	C325.296906,944.238831 324.655792,944.345825 324.285156,944.825745 
z"/>
<path fill="#D4D4D4" opacity="1.000000" stroke="none" 
	d="
M362.308380,21.027836 
	C362.498901,21.171194 362.659241,21.342783 362.882629,22.046240 
	C363.282990,23.355274 363.590088,24.160666 363.897186,24.966061 
	C363.955048,25.429596 364.012909,25.893129 363.747803,26.875336 
	C363.582214,28.251348 363.739563,29.108685 363.896881,29.966021 
	C363.955444,30.732731 364.013977,31.499441 363.984741,32.642761 
	C363.714081,32.944721 363.531281,32.870079 363.012207,32.627266 
	C362.675964,32.459095 362.414917,32.080036 362.268372,31.800785 
	C358.826874,29.901396 355.451385,29.756258 352.001770,30.969187 
	C350.436035,29.828875 348.870331,28.688560 347.146027,26.890495 
	C349.097900,24.598442 350.987915,22.276056 353.376740,21.510757 
	C356.123596,20.630768 359.311859,21.128506 362.308380,21.027836 
z"/>
<path fill="#D4D4D4" opacity="1.000000" stroke="none" 
	d="
M346.865143,931.141785 
	C350.656525,925.446167 356.716187,928.864136 361.788330,927.258301 
	C362.193817,927.106934 362.391388,927.176575 362.850769,927.391602 
	C363.112579,927.536987 363.103210,927.512878 363.072418,928.026978 
	C363.098175,929.568359 363.154724,930.595703 363.211304,931.623047 
	C363.396515,932.117004 363.581726,932.611023 363.420746,933.689209 
	C363.009491,935.175171 362.944397,936.077026 362.489563,936.969849 
	C357.414642,936.288818 352.729462,935.616638 347.896423,934.641968 
	C347.454071,933.273499 347.159607,932.207642 346.865143,931.141785 
z"/>
<path fill="#CDCDCD" opacity="1.000000" stroke="none" 
	d="
M346.544708,8.974363 
	C346.979095,9.379922 346.956390,9.718678 346.706085,10.672520 
	C345.383270,14.689715 347.665802,19.636904 341.872131,20.984745 
	C341.695129,20.998697 341.340515,20.979698 340.920868,20.939812 
	C340.221497,20.926487 339.941742,20.953053 339.483521,20.988823 
	C339.305084,20.998030 338.948914,20.969458 338.710876,20.676207 
	C336.064911,19.958639 334.646027,18.861923 334.918945,16.075886 
	C335.144958,13.768910 334.970795,11.422730 334.973907,9.093920 
	C338.678467,9.031800 342.383026,8.969681 346.544708,8.974363 
M340.129913,12.569465 
	C340.129913,14.297274 340.129913,16.025084 340.129913,17.752892 
	C340.437103,17.723654 340.744293,17.694416 341.051483,17.665178 
	C340.889099,15.812281 340.726685,13.959383 340.129913,12.569465 
z"/>
<path fill="#CDCDCD" opacity="1.000000" stroke="none" 
	d="
M291.035645,17.954428 
	C291.030701,18.131947 291.025787,18.309467 290.779907,18.979397 
	C289.381165,19.971498 288.223389,20.471191 286.884155,20.987480 
	C286.702698,21.004076 286.338226,21.003756 286.338226,21.003756 
	C286.115692,20.987751 285.893158,20.971748 285.096863,20.681400 
	C283.013458,20.108435 281.503754,19.809811 279.994263,19.264933 
	C279.998260,18.690359 280.003357,18.362061 279.997437,17.591881 
	C280.004578,15.361034 280.024017,13.572085 280.025482,11.437630 
	C280.005066,10.400272 280.002655,9.708424 280.000214,9.016575 
	C283.374512,8.982044 286.748840,8.947513 290.514221,9.443460 
	C290.948730,12.634103 290.992188,15.294266 291.035645,17.954428 
M285.870880,12.585655 
	C285.666779,12.521316 285.464447,12.427034 285.257294,12.415009 
	C285.209290,12.412220 285.097229,12.689582 285.095703,12.838871 
	C285.082611,14.111291 285.088196,15.383903 285.088196,16.656458 
	C285.368591,16.652964 285.648987,16.649471 285.929382,16.645977 
	C285.929382,15.502197 285.929382,14.358418 285.870880,12.585655 
z"/>
<path fill="#CBCBCB" opacity="1.000000" stroke="none" 
	d="
M342.035492,948.910034 
	C341.263031,948.969055 340.490601,949.028076 339.106323,948.709351 
	C337.501434,948.212769 336.508392,948.093994 335.433533,947.891235 
	C335.351746,947.807190 335.022858,947.472717 335.024414,946.974915 
	C335.014282,944.493530 334.746216,942.464783 335.085449,940.543152 
	C335.294220,939.360474 336.430603,938.341675 337.150513,937.249329 
	C338.074707,938.298218 339.423767,939.209412 339.819031,940.429626 
	C340.352173,942.075378 340.151184,943.958984 340.265228,945.740479 
	C340.997040,944.065857 340.758423,942.387451 341.072632,940.819885 
	C341.323792,939.566772 342.247650,938.448608 342.872986,937.270508 
	C343.896393,938.384399 345.606781,939.393372 345.796204,940.634521 
	C346.159882,943.017517 345.660980,945.532166 345.457306,947.965881 
	C345.394714,947.939575 345.263153,947.905701 344.903625,947.902832 
	C343.707886,948.236694 342.871704,948.573364 342.035492,948.910034 
z"/>
<path fill="#CBCBCB" opacity="1.000000" stroke="none" 
	d="
M280.009705,18.033781 
	C280.003357,18.362061 279.998260,18.690359 279.553528,19.369579 
	C275.438263,19.489059 271.763916,19.257637 268.089600,19.026215 
	C268.028992,17.292707 267.968384,15.559199 268.351807,13.373556 
	C269.188538,11.644021 269.581207,10.366619 269.973877,9.089222 
	C270.432373,9.029597 270.890900,8.969969 271.674683,9.300508 
	C272.657959,9.490019 273.315979,9.289361 273.973999,9.088703 
	C275.697083,9.025846 277.420135,8.962988 279.571716,8.958353 
	C280.002655,9.708424 280.005066,10.400272 279.680664,11.465932 
	C277.432922,13.323879 277.659393,15.462740 280.009705,18.033781 
z"/>
<path fill="#D3D3D3" opacity="1.000000" stroke="none" 
	d="
M269.942505,938.892822 
	C270.596008,938.915833 271.249298,938.949951 271.903015,938.959961 
	C278.992615,939.068726 278.992615,939.067749 278.975220,946.875793 
	C278.982147,948.059448 279.003662,948.479431 279.025146,948.899414 
	C278.847443,948.951355 278.669708,949.003235 278.052704,948.733276 
	C276.753601,948.574097 275.893799,948.736877 275.033997,948.899658 
	C273.624634,948.958618 272.215302,949.017578 270.416992,948.573853 
	C269.432739,946.905518 268.837463,945.739807 268.242218,944.574097 
	C268.129181,942.943115 268.016113,941.312134 268.303955,939.375610 
	C269.117371,939.011047 269.529938,938.951965 269.942505,938.892822 
z"/>
<path fill="#FFFFFF" opacity="1.000000" stroke="none" 
	d="
M334.535522,9.051849 
	C334.970795,11.422730 335.144958,13.768910 334.918945,16.075886 
	C334.646027,18.861923 336.064911,19.958639 338.298950,20.663059 
	C332.964844,20.883278 335.594238,24.750332 335.060181,27.022596 
	C334.890656,27.016026 334.721161,27.009453 334.280640,26.615139 
	C333.348572,25.195309 332.922028,23.774191 331.980835,23.206821 
	C329.526794,21.727510 326.897003,21.859604 323.937225,21.942125 
	C319.587708,22.063395 315.232422,21.062160 311.005859,22.941238 
	C310.616333,22.633694 310.226807,22.326155 309.335510,21.709999 
	C307.912354,21.227636 306.990967,21.053890 306.069580,20.880148 
	C307.217163,20.364248 308.369415,19.394514 309.511536,19.406317 
	C316.762634,19.481256 324.011078,19.851332 331.261719,19.893045 
	C332.155701,19.898188 333.057587,18.533129 333.989380,16.968594 
	C334.529968,12.351697 333.295624,10.280433 329.097351,11.121892 
	C328.708649,10.963115 328.319977,10.804338 327.481812,10.184706 
	C329.387268,9.485827 331.742188,9.247804 334.535522,9.051849 
z"/>
<path fill="#CDCDCD" opacity="1.000000" stroke="none" 
	d="
M335.022888,947.472717 
	C335.022858,947.472717 335.351746,947.807190 335.556946,948.126709 
	C335.849792,948.599609 335.937408,948.753052 336.024994,948.906433 
	C335.255035,948.966370 334.485046,949.026245 333.109100,948.720337 
	C331.329773,948.095642 330.156433,947.836792 328.983093,947.577881 
	C328.983093,947.577881 329.022369,947.380371 329.020081,946.857544 
	C329.017792,944.618835 329.017792,942.902954 329.017792,941.187073 
	C328.735870,941.187012 328.453949,941.186890 328.172028,941.186829 
	C328.087738,941.783997 328.003479,942.381165 327.919250,942.978271 
	C326.289886,942.216187 324.660522,941.454041 322.992676,940.301636 
	C326.339691,939.586182 329.725250,939.260986 333.576477,939.390015 
	C334.369080,942.386963 334.695984,944.929871 335.022888,947.472717 
z"/>
<path fill="#D4D4D4" opacity="1.000000" stroke="none" 
	d="
M270.996552,927.998474 
	C273.542297,928.934631 276.088013,929.870789 278.633759,930.806946 
	C277.569916,932.382202 276.758240,934.268921 275.345154,935.412720 
	C274.530945,936.071838 272.337860,936.055420 271.492767,935.402100 
	C270.293243,934.474854 269.763855,932.680664 268.528137,930.799316 
	C268.108185,930.341614 268.094055,930.174683 268.641785,930.177307 
	C269.791870,929.452759 270.394196,928.725647 270.996552,927.998474 
z"/>
<path fill="#F0F0F0" opacity="1.000000" stroke="none" 
	d="
M348.044250,934.944519 
	C352.729462,935.616638 357.414642,936.288818 362.734497,936.978271 
	C363.369171,936.995605 363.856018,936.988586 363.856018,936.988586 
	C363.910461,937.433228 363.964874,937.877930 363.964050,938.656311 
	C358.545959,939.324646 353.183136,939.659302 347.417206,939.628052 
	C347.357452,937.822937 347.700867,936.383728 348.044250,934.944519 
z"/>
<path fill="#FFFFFF" opacity="1.000000" stroke="none" 
	d="
M268.049316,19.486301 
	C271.763916,19.257637 275.438263,19.489059 279.553345,19.615833 
	C281.503754,19.809811 283.013458,20.108435 284.762909,20.702988 
	C285.002686,20.998915 284.966614,21.023523 284.577576,21.000801 
	C282.702362,21.292974 281.216156,21.607870 279.729950,21.922768 
	C278.950836,22.123583 278.171722,22.324396 276.850586,22.712292 
	C274.846619,22.535728 272.265930,21.596052 272.107544,21.903645 
	C271.204742,23.656939 270.767822,25.687775 270.416687,27.667582 
	C270.289368,28.385468 270.836182,29.222927 271.075378,30.005835 
	C270.297119,30.631544 269.518860,31.257250 268.440735,31.934441 
	C268.096954,27.972748 268.053009,23.959568 268.049316,19.486301 
z"/>
<path fill="#CDCDCD" opacity="1.000000" stroke="none" 
	d="
M298.183807,948.440918 
	C298.085632,946.021301 297.876617,943.543945 298.228485,941.149048 
	C298.348572,940.331665 299.810242,939.331543 300.787933,939.162964 
	C301.370056,939.062561 302.709351,940.343567 302.825256,941.133118 
	C303.130035,943.209351 302.951630,945.356567 302.942993,947.968872 
	C302.920288,948.462280 302.705627,948.409119 302.133911,948.223633 
	C300.504913,948.096863 299.447693,948.155579 298.390442,948.214355 
	C298.390442,948.214355 298.292694,948.415466 298.183807,948.440918 
z"/>
<path fill="#CDCDCD" opacity="1.000000" stroke="none" 
	d="
M304.183838,948.440918 
	C304.086060,946.021484 303.877441,943.544312 304.229858,941.149658 
	C304.350189,940.331970 305.812225,939.332092 306.790283,939.163330 
	C307.372162,939.062927 308.711487,940.344177 308.827240,941.133667 
	C309.131561,943.209778 308.952637,945.356628 308.943115,947.968750 
	C308.920044,948.462219 308.705566,948.408997 308.133850,948.223572 
	C306.504944,948.096863 305.447693,948.155579 304.390472,948.214355 
	C304.390472,948.214355 304.292755,948.415527 304.183838,948.440918 
z"/>
<path fill="#CDCDCD" opacity="1.000000" stroke="none" 
	d="
M313.120178,10.219126 
	C313.906006,11.238883 315.072845,12.199051 315.284515,13.336892 
	C315.477539,14.374598 314.944580,15.985102 314.151581,16.630838 
	C313.509521,17.153673 311.683075,17.010540 310.980530,16.433748 
	C310.361969,15.925935 310.315277,14.362842 310.493988,13.350101 
	C310.652191,12.453458 311.468506,11.672946 312.381500,10.515528 
	C312.768738,10.189890 313.084961,10.236961 313.120178,10.219126 
z"/>
<path fill="#CBCBCB" opacity="1.000000" stroke="none" 
	d="
M307.210388,10.215879 
	C307.766083,11.015593 308.696014,11.837167 308.704865,12.668522 
	C308.718994,13.999874 308.326782,15.454481 307.668182,16.606512 
	C307.451202,16.986042 305.111023,16.767994 305.053467,16.519447 
	C304.749878,15.208255 304.748413,13.787637 304.891754,12.431370 
	C304.951080,11.870337 305.632263,11.375040 306.429688,10.526688 
	C306.828766,10.203531 307.171326,10.242130 307.210388,10.215879 
z"/>
<path fill="#CBCBCB" opacity="1.000000" stroke="none" 
	d="
M301.209198,10.215551 
	C301.764832,11.015454 302.694855,11.837264 302.703522,12.668661 
	C302.717346,14.000328 302.324829,15.455195 301.665833,16.607359 
	C301.448761,16.986948 299.108215,16.768488 299.050629,16.519737 
	C298.747101,15.208555 298.746002,13.787867 298.889679,12.431632 
	C298.949127,11.870518 299.630646,11.375299 300.428162,10.526581 
	C300.827087,10.203051 301.170105,10.241761 301.209198,10.215551 
z"/>
<path fill="#CBCBCB" opacity="1.000000" stroke="none" 
	d="
M319.082397,10.231298 
	C319.616211,10.648718 320.445770,11.017437 320.549957,11.532821 
	C320.859985,13.066022 321.006256,14.665709 320.893585,16.215946 
	C320.876160,16.455492 318.393951,16.838600 318.346893,16.703621 
	C317.846649,15.269151 317.544495,13.751913 317.341187,12.236868 
	C317.287689,11.837974 317.763000,11.368117 318.352478,10.559282 
	C318.709534,10.187722 319.046570,10.249629 319.082397,10.231298 
z"/>
<path fill="#CBCBCB" opacity="1.000000" stroke="none" 
	d="
M325.082397,10.231305 
	C325.770905,10.909814 326.829956,11.527661 326.984253,12.321386 
	C327.236938,13.621367 327.081573,15.090929 326.691376,16.364265 
	C326.589569,16.696512 324.428009,16.945833 324.177216,16.577097 
	C323.533173,15.630100 323.260284,14.327175 323.174988,13.142344 
	C323.123596,12.428560 323.700775,11.669531 324.352539,10.559280 
	C324.709564,10.187726 325.046600,10.249636 325.082397,10.231305 
z"/>
<path fill="#FFFFFF" opacity="1.000000" stroke="none" 
	d="
M291.238159,17.843746 
	C290.992188,15.294266 290.948730,12.634103 290.965454,9.533941 
	C293.567780,9.083564 296.109955,9.073186 298.804321,9.367047 
	C298.667877,9.980450 298.379211,10.289613 297.094971,10.798216 
	C290.838379,10.339493 292.077545,14.121703 291.997345,17.002647 
	C291.868042,17.289001 291.682495,17.532473 291.238159,17.843746 
z"/>
<path fill="#FFFFFF" opacity="1.000000" stroke="none" 
	d="
M270.754883,927.820801 
	C270.394196,928.725647 269.791870,929.452759 268.669769,930.140930 
	C268.105591,928.956482 268.061157,927.810974 268.081055,926.338745 
	C268.934631,926.555725 269.723907,927.099426 270.754883,927.820801 
z"/>
<path fill="#FFFFFF" opacity="1.000000" stroke="none" 
	d="
M268.132874,944.932617 
	C268.837463,945.739807 269.432739,946.905518 270.001587,948.485535 
	C269.324585,947.696960 268.674072,946.494019 268.132874,944.932617 
z"/>
<path fill="#FFFFFF" opacity="1.000000" stroke="none" 
	d="
M318.471985,948.944092 
	C320.493103,948.718994 322.952393,948.540588 325.685211,948.629761 
	C323.609222,948.928406 321.259674,948.959534 318.471985,948.944092 
z"/>
<path fill="#FFFFFF" opacity="1.000000" stroke="none" 
	d="
M269.582336,9.054916 
	C269.581207,10.366619 269.188538,11.644021 268.442444,12.947884 
	C268.456268,11.656435 268.823547,10.338526 269.582336,9.054916 
z"/>
<path fill="#FFFFFF" opacity="1.000000" stroke="none" 
	d="
M279.447113,948.944946 
	C279.003662,948.479431 278.982147,948.059448 278.987854,947.324097 
	C279.015076,947.008667 279.501587,947.004639 279.744751,947.005371 
	C281.499603,947.458374 283.011322,947.910645 284.740845,948.635132 
	C283.262115,948.935120 281.565613,948.962830 279.447113,948.944946 
z"/>
<path fill="#FFFFFF" opacity="1.000000" stroke="none" 
	d="
M269.903259,938.603760 
	C269.529938,938.951965 269.117371,939.011047 268.394531,939.023315 
	C268.054413,938.537476 268.024597,938.098328 268.062408,937.335205 
	C268.708069,937.445679 269.286041,937.880127 269.903259,938.603760 
z"/>
<path fill="#FFFFFF" opacity="1.000000" stroke="none" 
	d="
M287.425293,948.949585 
	C288.212830,948.729797 289.391541,948.552063 290.764465,948.640991 
	C289.911255,948.935608 288.863831,948.963562 287.425293,948.949585 
z"/>
<path fill="#FFFFFF" opacity="1.000000" stroke="none" 
	d="
M353.652588,9.062330 
	C353.665558,9.584394 353.354187,10.055529 353.042786,10.526661 
	C352.718201,10.242382 352.393585,9.958106 352.045959,9.393543 
	C352.458008,9.079306 352.893127,9.045354 353.652588,9.062330 
z"/>
<path fill="#FFFFFF" opacity="1.000000" stroke="none" 
	d="
M359.652588,9.062332 
	C359.665558,9.584385 359.354126,10.055510 359.042694,10.526630 
	C358.718140,10.242351 358.393555,9.958075 358.045959,9.393529 
	C358.458008,9.079308 358.893127,9.045355 359.652588,9.062332 
z"/>
<path fill="#FFFFFF" opacity="1.000000" stroke="none" 
	d="
M273.650085,9.048746 
	C273.315979,9.289361 272.657959,9.490019 272.012756,9.389759 
	C272.459137,9.062159 272.892639,9.035475 273.650085,9.048746 
z"/>
<path fill="#FFFFFF" opacity="1.000000" stroke="none" 
	d="
M328.963013,947.908752 
	C330.156433,947.836792 331.329773,948.095642 332.731049,948.630615 
	C331.908478,948.934631 330.857941,948.962646 329.415649,948.944031 
	C328.996887,948.678101 328.969910,948.458862 328.963013,947.908752 
z"/>
<path fill="#FFFFFF" opacity="1.000000" stroke="none" 
	d="
M346.989563,947.988220 
	C348.147705,948.123169 349.305817,948.258118 350.711426,948.639954 
	C349.907654,948.920776 348.856415,948.954712 347.381348,948.713501 
	C346.957520,948.438354 346.989563,947.988220 346.989563,947.988220 
z"/>
<path fill="#FFFFFF" opacity="1.000000" stroke="none" 
	d="
M336.390533,948.948608 
	C335.937408,948.753052 335.849792,948.599609 335.638733,948.210693 
	C336.508392,948.093994 337.501434,948.212769 338.726807,948.620728 
	C338.224792,948.936829 337.490448,948.963806 336.390533,948.948608 
z"/>
<path fill="#FFFFFF" opacity="1.000000" stroke="none" 
	d="
M342.402527,948.950684 
	C342.871704,948.573364 343.707886,948.236694 344.830444,948.148071 
	C345.070404,948.559326 345.024017,948.722534 344.977631,948.885681 
	C344.241608,948.920898 343.505585,948.956116 342.402527,948.950684 
z"/>
<path fill="#FFFFFF" opacity="1.000000" stroke="none" 
	d="
M275.398193,948.945251 
	C275.893799,948.736877 276.753601,948.574097 277.786133,948.655396 
	C277.226715,948.929932 276.494568,948.960388 275.398193,948.945251 
z"/>
<path fill="#FFFFFF" opacity="1.000000" stroke="none" 
	d="
M304.616608,948.564453 
	C305.447693,948.155579 306.504944,948.096863 308.087219,948.123413 
	C307.355774,948.443909 306.099243,948.679260 304.616608,948.564453 
z"/>
<path fill="#FFFFFF" opacity="1.000000" stroke="none" 
	d="
M298.616516,948.564514 
	C299.447693,948.155579 300.504913,948.096863 302.087219,948.123413 
	C301.355713,948.444031 300.099152,948.679382 298.616516,948.564514 
z"/>
<path fill="#FFFFFF" opacity="1.000000" stroke="none" 
	d="
M293.431274,948.949829 
	C293.973236,948.625488 294.911743,948.343140 296.233887,948.143921 
	C295.687592,948.481995 294.757721,948.736938 293.431274,948.949829 
z"/>
<path fill="#FFFFFF" opacity="1.000000" stroke="none" 
	d="
M363.921417,936.591980 
	C363.856018,936.988586 363.369171,936.995605 363.124268,936.987183 
	C362.944397,936.077026 363.009491,935.175171 363.141602,933.825562 
	C363.468048,934.316956 363.727417,935.256165 363.921417,936.591980 
z"/>
<path fill="#FFFFFF" opacity="1.000000" stroke="none" 
	d="
M363.943787,24.599249 
	C363.590088,24.160666 363.282990,23.355274 362.964905,22.202770 
	C362.953918,21.855661 363.423523,21.918530 363.654785,21.969875 
	C363.920837,22.758293 363.955627,23.495365 363.943787,24.599249 
z"/>
<path fill="#FFFFFF" opacity="1.000000" stroke="none" 
	d="
M363.943604,29.601892 
	C363.739563,29.108685 363.582214,28.251348 363.661041,27.217571 
	C363.928223,27.773340 363.959259,28.505552 363.943604,29.601892 
z"/>
<path fill="#FFFFFF" opacity="1.000000" stroke="none" 
	d="
M363.562683,931.425049 
	C363.154724,930.595703 363.098175,929.568359 363.294006,928.128906 
	C363.546387,927.716797 363.927673,928.023132 363.927673,928.023132 
	C363.923126,929.091125 363.918640,930.159119 363.562683,931.425049 
z"/>
<path fill="#FFFFFF" opacity="1.000000" stroke="none" 
	d="
M311.524231,948.568970 
	C312.061157,948.279114 312.759003,948.335266 313.708069,948.644714 
	C313.201263,948.903564 312.443207,948.909241 311.524231,948.568970 
z"/>
<path fill="#DBDBDB" opacity="1.000000" stroke="none" 
	d="
M345.314850,948.970581 
	C345.024017,948.722534 345.070404,948.559326 345.189972,948.150940 
	C345.263153,947.905701 345.394714,947.939575 345.831543,947.990662 
	C346.516541,948.031921 346.764740,948.022156 347.012970,948.012329 
	C347.012970,948.012329 347.001343,948.000671 346.995453,947.994446 
	C346.989563,947.988220 346.957520,948.438354 346.989685,948.661682 
	C346.565277,948.941833 346.108673,948.998657 345.314850,948.970581 
z"/>
<path fill="#FFFFFF" opacity="1.000000" stroke="none" 
	d="
M355.352234,948.937744 
	C355.581787,948.748901 356.131287,948.610962 356.820435,948.679932 
	C356.530792,948.920837 356.101471,948.954773 355.352234,948.937744 
z"/>
<path fill="#FFFFFF" opacity="1.000000" stroke="none" 
	d="
M363.904907,9.710041 
	C363.585815,9.921414 363.350891,9.770010 363.108093,9.314700 
	C363.330475,9.225405 363.626770,9.337561 363.904907,9.710041 
z"/>
<path fill="#C0C0C0" opacity="1.000000" stroke="none" 
	d="
M364.008911,927.761963 
	C363.927673,928.023132 363.546387,927.716797 363.324799,927.614868 
	C363.103210,927.512878 363.112579,927.536987 363.127686,927.540222 
	C363.142761,927.543457 363.562378,927.298767 363.744934,927.138672 
	C363.981750,927.152710 364.035950,927.326782 364.008911,927.761963 
z"/>
<path fill="#FFFFFF" opacity="1.000000" stroke="none" 
	d="
M363.290405,948.904968 
	C363.078735,948.585876 363.230103,948.350830 363.685364,948.107544 
	C363.774811,948.329834 363.662842,948.626404 363.290405,948.904968 
z"/>
<path fill="#0B3526" opacity="1.000000" stroke="none" 
	d="
M37.183784,905.031372 
	C33.728142,902.686401 30.469555,899.928528 26.743393,898.150513 
	C24.486292,897.073364 22.933535,896.662598 22.935553,893.637634 
	C23.027027,756.480408 23.032839,619.323120 23.052387,482.165802 
	C23.052410,482.007477 23.107643,481.849121 23.201223,481.345856 
	C94.198997,481.345856 165.262573,481.345856 236.756775,481.345856 
	C237.742371,503.045959 245.867172,522.053162 261.901154,537.013916 
	C279.436371,553.375488 300.800018,560.369263 324.519379,557.853088 
	C362.304718,553.844849 392.984314,525.139404 396.278290,481.239380 
	C466.674683,481.239380 537.089294,481.239380 607.999084,481.239380 
	C607.999084,482.768463 607.999023,484.212524 607.999023,485.656586 
	C607.999084,621.147827 607.989624,756.639038 608.052063,892.130310 
	C608.053650,895.643311 607.620178,897.289307 603.465454,898.492859 
	C595.731201,900.733337 590.855835,906.682068 589.090942,914.812317 
	C554.332520,914.812317 519.911438,914.812317 485.038635,914.812317 
	C485.038635,870.432007 485.038635,826.198303 485.038635,781.777771 
	C478.987732,781.505493 473.374573,781.049194 467.760284,781.034668 
	C439.095673,780.960388 410.430725,780.984253 381.765991,781.021423 
	C378.429321,781.025757 375.583679,781.145020 373.566986,777.334106 
	C372.197266,774.745789 369.046356,773.099976 366.361633,770.991211 
	C366.031311,770.949829 366.086914,771.013977 365.961029,770.663269 
	C364.194427,769.537109 362.553711,768.761658 360.965332,768.023132 
	C361.017639,768.060120 361.108246,768.150879 361.108215,768.150879 
	C358.826508,766.111267 356.837402,763.516418 354.210358,762.132019 
	C344.870056,757.210144 335.036011,754.005737 324.351257,752.879761 
	C297.737610,750.075012 275.852081,759.242615 257.563293,778.047363 
	C255.371536,780.300964 253.271866,781.059998 250.256134,781.058105 
	C217.124893,781.037598 183.993607,781.144043 150.862320,781.215515 
	C149.404953,781.218628 147.947571,781.215942 146.166107,781.215942 
	C146.166107,825.878540 146.166107,870.107666 146.166107,914.999084 
	C144.258301,914.999084 142.671875,914.999084 141.085449,914.999084 
	C110.113800,914.999146 79.141884,914.939148 48.170853,915.078125 
	C44.466640,915.094727 41.987640,914.614807 40.981323,910.508911 
	C40.510647,908.588440 38.850800,906.959351 37.417168,905.109375 
	C37.104431,905.020508 37.183777,905.031372 37.183784,905.031372 
z"/>
<path fill="#0B3526" opacity="1.000000" stroke="none" 
	d="
M370.847656,182.113861 
	C371.082886,182.298035 371.318085,182.482193 371.553314,182.666351 
	C375.469360,176.712112 381.560181,178.013016 387.229187,178.009659 
	C418.059235,177.991348 448.889282,178.000961 479.719330,178.000961 
	C481.347900,178.000961 482.976471,178.000961 485.004028,178.000961 
	C485.004028,133.197830 485.004028,88.797783 485.004028,44.001022 
	C486.545502,44.001022 487.668488,44.001026 488.791473,44.001022 
	C520.788086,44.001011 552.784668,44.018284 584.781189,43.971050 
	C587.609253,43.966877 589.231323,44.252083 590.480347,47.648632 
	C593.319458,55.369213 599.586243,59.636803 607.823059,61.227676 
	C607.823059,199.966415 607.823059,338.729034 607.823059,477.745361 
	C537.279663,477.745361 466.878571,477.745361 396.150085,477.745361 
	C394.968262,453.945099 385.819794,433.762177 367.653992,418.300110 
	C351.293549,404.374664 331.912842,398.443298 310.542206,400.067291 
	C276.995789,402.616516 239.345413,428.285248 236.595367,477.788391 
	C165.539673,477.788391 94.472641,477.788391 23.203304,477.788391 
	C23.203304,338.978210 23.203304,200.378433 23.203304,61.427773 
	C32.910862,59.720558 39.828259,54.516502 42.543541,44.178654 
	C76.655991,44.178654 111.092232,44.178654 145.951874,44.178654 
	C145.951874,88.753395 145.951874,133.153442 145.951874,178.000961 
	C147.984344,178.000961 149.601318,178.000961 151.218307,178.000961 
	C183.548187,178.000961 215.878799,178.107086 248.207214,177.889526 
	C253.205582,177.855896 257.303589,178.637085 260.929474,182.356964 
	C262.314087,182.804016 263.162506,183.614349 263.580170,184.635529 
	C266.107513,187.256058 269.065552,189.665710 271.997314,192.050751 
	C271.970978,192.026138 271.912750,191.983627 272.026855,192.320724 
	C274.446045,194.107742 276.672607,195.704666 279.068634,196.984344 
	C298.411987,207.315353 318.763916,208.690720 339.502838,202.627014 
	C348.537323,199.985489 357.346893,196.144379 364.057648,189.005295 
	C364.028900,189.026352 363.976929,189.075119 364.332703,189.039185 
	C366.799438,186.642654 368.910431,184.282043 370.981384,181.972626 
	C370.941376,182.023819 370.847656,182.113861 370.847656,182.113861 
z"/>
<path fill="#0B3526" opacity="1.000000" stroke="none" 
	d="
M194.000000,44.000988 
	C209.138474,44.000988 223.776947,44.000988 238.837585,44.000988 
	C238.837585,57.300617 238.837585,70.371498 238.837585,83.718918 
	C290.315491,83.718918 341.371124,83.718918 392.850677,83.718918 
	C392.850677,70.689812 392.850677,57.618908 392.850677,44.277390 
	C422.000092,44.277390 450.727814,44.277390 479.727722,44.277390 
	C479.727722,87.007240 479.727722,129.731262 479.727722,172.727448 
	C370.343079,172.727448 260.969452,172.727448 151.298279,172.727448 
	C151.298279,130.045166 151.298279,87.320961 151.298279,44.000988 
	C165.315628,44.000988 179.407806,44.000988 194.000000,44.000988 
M319.513916,122.945145 
	C315.484314,120.622353 312.874298,122.706955 311.459320,126.151657 
	C310.003815,129.694962 310.666321,133.438995 314.960236,134.249557 
	C317.181396,134.668854 320.728149,133.703827 322.042297,132.058990 
	C324.417480,129.086121 323.216522,125.627922 319.513916,122.945145 
z"/>
<path fill="#0B3526" opacity="1.000000" stroke="none" 
	d="
M479.999054,879.000000 
	C479.999054,891.139282 479.999054,902.778564 479.999054,914.707764 
	C451.029938,914.707764 422.302094,914.707764 393.149933,914.707764 
	C393.149933,901.353149 393.149933,887.949158 393.149933,874.274902 
	C341.672028,874.274902 290.616394,874.274902 239.136963,874.274902 
	C239.136963,887.656250 239.136963,901.060242 239.136963,914.728760 
	C209.654236,914.728760 180.593338,914.728760 151.266296,914.728760 
	C151.266296,871.980652 151.266296,829.256592 151.266296,786.266479 
	C260.669525,786.266479 370.043152,786.266479 479.999054,786.266479 
	C479.999054,816.994019 479.999054,847.747009 479.999054,879.000000 
M323.000793,828.342224 
	C322.465485,823.123596 320.780579,821.574402 316.104523,822.001221 
	C312.313507,822.347229 310.023468,825.098755 311.178375,829.092407 
	C311.732269,831.007751 313.905762,833.235291 315.804871,833.813599 
	C319.404144,834.909485 321.989471,832.896729 323.000793,828.342224 
z"/>
<path fill="#0B3526" opacity="1.000000" stroke="none" 
	d="
M274.000000,477.999237 
	C263.531738,477.999237 253.563492,477.999237 242.940918,477.999237 
	C243.304367,454.191193 252.851578,434.904541 271.235352,420.915680 
	C296.925446,401.367157 324.912445,399.209198 353.348114,414.927826 
	C377.695312,428.386444 388.999390,450.221832 391.159363,477.778442 
	C389.389130,477.862030 387.936371,477.989349 386.483521,477.990356 
	C367.337250,478.003693 348.190063,478.088745 329.045929,477.885712 
	C326.660614,477.860443 323.872284,476.809906 322.005005,475.316406 
	C318.425476,472.453278 315.588104,472.442719 312.004272,475.308075 
	C310.135925,476.801910 307.361542,477.816010 304.964569,477.881531 
	C294.816223,478.159027 284.655914,477.999237 274.000000,477.999237 
z"/>
<path fill="#0B3526" opacity="1.000000" stroke="none" 
	d="
M389.032135,494.039215 
	C382.578674,522.773132 365.180939,541.471436 337.777069,549.777588 
	C310.906006,557.922363 286.612610,551.662781 265.958069,532.427124 
	C251.720474,519.167603 244.170868,502.697357 243.012039,483.289398 
	C242.974884,482.667358 243.065567,482.037659 243.117035,481.000763 
	C254.817993,481.000763 266.270721,481.000763 277.723450,481.000763 
	C287.552185,481.000763 297.383148,480.896729 307.207367,481.107117 
	C308.773438,481.140686 310.736084,482.221802 311.779510,483.445862 
	C314.976471,487.196442 319.296356,487.152802 322.445343,483.160919 
	C323.205444,482.197327 324.564026,481.097656 325.653168,481.091583 
	C347.282898,480.970581 368.913544,481.001343 391.341095,481.001343 
	C390.529755,485.483337 389.794586,489.544556 389.032135,494.039215 
z"/>
<path fill="#0B3526" opacity="1.000000" stroke="none" 
	d="
M271.000000,876.000916 
	C311.128326,876.000916 350.756653,876.000916 390.691833,876.000916 
	C390.691833,888.938049 390.691833,901.669800 390.691833,914.701416 
	C341.052063,914.701416 291.334137,914.701416 241.308319,914.701416 
	C241.308319,902.062256 241.308319,889.330566 241.308319,876.000916 
	C250.979721,876.000916 260.739868,876.000916 271.000000,876.000916 
z"/>
<path fill="#0B3526" opacity="1.000000" stroke="none" 
	d="
M314.000000,81.999046 
	C289.532867,81.999046 265.565765,81.999046 241.300140,81.999046 
	C241.300140,69.378868 241.300140,56.980618 241.300140,44.290497 
	C290.964203,44.290497 340.681915,44.290497 390.699646,44.290497 
	C390.699646,56.620651 390.699646,69.018944 390.699646,81.999046 
	C365.338043,81.999046 339.919006,81.999046 314.000000,81.999046 
z"/>
<path fill="#0B3526" opacity="1.000000" stroke="none" 
	d="
M366.021759,770.908508 
	C367.257324,772.661987 368.339630,774.604858 369.796631,776.206970 
	C371.071533,777.608948 372.767609,778.627869 374.277649,779.815979 
	C374.010071,780.143311 373.742523,780.470703 373.474945,780.798096 
	C335.168274,780.798096 296.861603,780.798096 257.992493,780.798096 
	C269.364349,767.595093 283.225250,759.760742 299.680725,755.936707 
	C316.540833,752.018616 332.579926,754.753723 348.207703,761.128235 
	C352.486359,762.873352 356.329285,765.686829 360.740204,768.080444 
	C361.108246,768.150879 361.017639,768.060120 361.091064,768.373535 
	C362.805298,769.462646 364.446106,770.238281 366.086914,771.013977 
	C366.086914,771.013977 366.031311,770.949829 366.021759,770.908508 
z"/>
<path fill="#0B3526" opacity="1.000000" stroke="none" 
	d="
M264.010895,184.424667 
	C263.162506,183.614349 262.314087,182.804016 261.513153,182.024384 
	C260.674255,181.082458 259.787903,180.109848 258.324768,178.504318 
	C296.765686,178.504318 334.496674,178.504318 372.430908,178.504318 
	C372.054932,179.270996 371.538177,180.324677 370.934540,181.746124 
	C370.847656,182.113861 370.941376,182.023819 370.634491,182.029251 
	C368.210724,184.381500 366.093842,186.728317 363.976929,189.075134 
	C363.976929,189.075119 364.028900,189.026352 363.791473,188.666779 
	C352.173187,195.563553 340.462341,201.532516 326.637512,203.263382 
	C309.171387,205.450134 293.028076,202.501312 277.663239,194.219696 
	C275.866608,193.251343 273.835266,192.718414 271.912750,191.983627 
	C271.912750,191.983627 271.970978,192.026138 272.320557,191.783356 
	C269.783752,189.168610 266.897308,186.796631 264.010895,184.424667 
z"/>
<path fill="#0C3526" opacity="1.000000" stroke="none" 
	d="
M37.089287,904.983398 
	C38.033218,908.051758 38.992302,911.157104 40.069321,914.644348 
	C34.407047,914.644348 28.939011,914.644348 23.231779,914.644348 
	C23.231779,909.916748 23.231779,905.189453 23.231779,900.169312 
	C28.902510,899.177795 32.370636,903.386719 36.886635,905.357178 
	C37.183777,905.031372 37.104431,905.020508 37.089287,904.983398 
z"/>
<path fill="#0B3526" opacity="1.000000" stroke="none" 
	d="
M30.991825,44.000988 
	C34.246719,44.000988 37.020393,44.000988 39.847286,44.000988 
	C38.713356,52.123508 32.598572,57.495312 23.207455,58.839359 
	C23.207455,54.065990 23.207455,49.319912 23.207455,44.000988 
	C25.664951,44.000988 28.087780,44.000988 30.991825,44.000988 
z"/>
<path fill="#0B3526" opacity="1.000000" stroke="none" 
	d="
M607.958801,913.765015 
	C602.723206,914.596741 597.521118,914.949646 592.310364,915.303101 
	C592.069885,907.142944 599.802551,899.955505 607.992310,900.380066 
	C607.992310,904.669434 607.992310,908.977783 607.958801,913.765015 
z"/>
<path fill="#0B3526" opacity="1.000000" stroke="none" 
	d="
M607.999023,48.110966 
	C607.999084,51.896767 607.999084,55.204048 607.999084,58.539204 
	C598.957825,57.212692 593.052490,51.820660 592.210266,44.001514 
	C596.533997,44.001514 600.840393,44.202827 605.117493,43.935173 
	C608.301331,43.735931 608.127869,45.559978 607.999023,48.110966 
z"/>
<path fill="#C0C0C0" opacity="1.000000" stroke="none" 
	d="
M362.414917,32.080032 
	C362.414917,32.080036 362.675964,32.459095 362.724701,32.555988 
	C362.653259,33.457893 362.824066,34.551338 362.362030,35.017456 
	C360.472717,36.923359 348.865906,35.958767 346.862396,33.457809 
	C348.282501,32.676270 349.761932,32.304230 351.999329,32.014023 
	C355.976532,32.090580 359.195709,32.085308 362.414917,32.080032 
z"/>
<path fill="#C0C0C0" opacity="1.000000" stroke="none" 
	d="
M362.254517,925.821045 
	C358.483368,926.084167 354.922211,926.169617 351.377625,925.966125 
	C349.923676,925.882568 348.505524,925.175659 346.933838,924.349609 
	C351.731445,923.671753 356.665283,923.358337 361.604004,923.226013 
	C361.872284,923.218811 362.181183,924.725159 362.254517,925.821045 
z"/>
<path fill="#E2E2E2" opacity="1.000000" stroke="none" 
	d="
M316.113739,927.966797 
	C320.085571,927.973999 324.057434,927.981201 328.449219,928.357910 
	C328.782806,932.434937 331.397827,931.935486 333.742615,931.856812 
	C333.742615,931.856812 333.924835,931.956970 333.935638,932.311096 
	C333.313538,933.445618 332.680634,934.225952 332.047729,935.006348 
	C328.562500,935.410217 325.069519,936.207092 321.593567,936.138855 
	C313.529755,935.980408 305.464142,935.531738 297.423004,934.898804 
	C295.627655,934.757507 293.930084,933.374390 292.563843,932.214844 
	C296.066040,932.416931 297.314026,930.928467 297.191132,927.951477 
	C301.182434,927.971375 305.173706,927.991272 309.595917,928.371094 
	C311.141541,929.765198 312.256256,930.799377 313.370972,931.833557 
	C314.285217,930.544617 315.199463,929.255737 316.113739,927.966797 
z"/>
<path fill="#FFFFFF" opacity="1.000000" stroke="none" 
	d="
M332.338318,935.175842 
	C332.680634,934.225952 333.313538,933.445618 334.022217,932.368713 
	C337.459015,935.818848 338.291656,935.646301 340.973358,930.682861 
	C341.504730,931.973389 342.046753,933.289795 342.588776,934.606201 
	C343.865417,933.599182 345.142029,932.592163 346.641907,931.363464 
	C347.159607,932.207642 347.454071,933.273499 347.896423,934.641968 
	C347.700867,936.383728 347.357452,937.822937 347.009064,939.633545 
	C347.000580,942.377380 346.997101,944.749878 347.003296,947.567383 
	C346.764740,948.022156 346.516541,948.031921 345.894135,948.016968 
	C345.660980,945.532166 346.159882,943.017517 345.796204,940.634521 
	C345.606781,939.393372 343.896393,938.384399 342.872986,937.270508 
	C342.247650,938.448608 341.323792,939.566772 341.072632,940.819885 
	C340.758423,942.387451 340.997040,944.065857 340.265228,945.740479 
	C340.151184,943.958984 340.352173,942.075378 339.819031,940.429626 
	C339.423767,939.209412 338.074707,938.298218 337.150513,937.249329 
	C336.430603,938.341675 335.294220,939.360474 335.085449,940.543152 
	C334.746216,942.464783 335.014282,944.493530 335.024445,946.974915 
	C334.695984,944.929871 334.369080,942.386963 334.030304,939.406006 
	C333.555237,937.760437 333.092072,936.552856 332.338318,935.175842 
z"/>
<path fill="#B1B1B1" opacity="1.000000" stroke="none" 
	d="
M315.828064,927.722168 
	C315.199463,929.255737 314.285217,930.544617 313.370972,931.833557 
	C312.256256,930.799377 311.141541,929.765198 309.967224,928.351807 
	C311.785889,927.807556 313.664154,927.642578 315.828064,927.722168 
z"/>
<path fill="#B1B1B1" opacity="1.000000" stroke="none" 
	d="
M284.750488,930.648193 
	C283.091400,930.664734 281.565308,930.302673 280.039215,929.940674 
	C280.654633,928.980652 281.270050,928.020630 281.885468,927.060608 
	C282.884827,928.130249 283.884186,929.199890 284.750488,930.648193 
z"/>
<path fill="#B1B1B1" opacity="1.000000" stroke="none" 
	d="
M287.292725,931.727539 
	C287.085663,930.112549 287.260651,928.623413 287.435608,927.134155 
	C288.590515,927.695862 289.745422,928.257568 290.900299,928.819214 
	C289.825104,929.830627 288.749939,930.842041 287.292725,931.727539 
z"/>
<path fill="#B1B1B1" opacity="1.000000" stroke="none" 
	d="
M296.910828,927.674744 
	C297.314026,930.928467 296.066040,932.416931 292.549744,931.819275 
	C291.481934,928.097961 292.325073,925.978333 296.910828,927.674744 
z"/>
<path fill="#B1B1B1" opacity="1.000000" stroke="none" 
	d="
M333.813171,931.459900 
	C331.397827,931.935486 328.782806,932.434937 328.788269,928.333740 
	C332.168823,926.103638 334.388916,926.324768 333.813171,931.459900 
z"/>
<path fill="#D3D3D3" opacity="1.000000" stroke="none" 
	d="
M310.862152,23.279606 
	C315.232422,21.062160 319.587708,22.063395 323.937225,21.942125 
	C326.897003,21.859604 329.526794,21.727510 331.980835,23.206821 
	C332.922028,23.774191 333.348572,25.195309 334.026428,26.603746 
	C329.740204,31.179329 324.568481,30.834270 319.225800,29.920786 
	C317.047821,29.548391 314.684540,29.913471 312.630463,29.248354 
	C309.922607,28.371529 309.473206,26.141714 310.862152,23.279606 
z"/>
<path fill="#D4D4D4" opacity="1.000000" stroke="none" 
	d="
M271.387207,30.145716 
	C270.836182,29.222927 270.289368,28.385468 270.416687,27.667582 
	C270.767822,25.687775 271.204742,23.656939 272.107544,21.903645 
	C272.265930,21.596052 274.846619,22.535728 276.653748,22.945679 
	C277.538635,24.383644 278.749847,26.851156 278.513214,26.998856 
	C276.386475,28.326227 274.005432,29.246056 271.387207,30.145716 
z"/>
<path fill="#FFFFFF" opacity="1.000000" stroke="none" 
	d="
M342.049133,20.970793 
	C347.665802,19.636904 345.383270,14.689715 346.738953,10.925677 
	C346.846191,19.980505 346.846344,19.955423 356.279205,20.011869 
	C358.051849,20.022476 359.822754,20.322285 361.951416,20.758236 
	C359.311859,21.128506 356.123596,20.630768 353.376740,21.510757 
	C350.987915,22.276056 349.097900,24.598442 346.974213,26.602654 
	C346.790588,26.982529 346.620178,26.992489 346.199341,26.583008 
	C346.247681,23.232000 346.604309,20.257040 342.049133,20.970793 
z"/>
<path fill="#C0C0C0" opacity="1.000000" stroke="none" 
	d="
M279.801575,22.344479 
	C281.216156,21.607870 282.702362,21.292974 284.582092,21.022114 
	C284.975647,23.491730 284.975647,25.917307 284.975647,28.505386 
	C279.371429,29.400385 280.272827,25.548485 279.801575,22.344479 
z"/>
<path fill="#C0C0C0" opacity="1.000000" stroke="none" 
	d="
M286.207275,21.420887 
	C286.338226,21.003756 286.702698,21.004076 287.270416,20.970997 
	C288.869995,20.973396 289.901855,21.008873 290.933716,21.044352 
	C290.933716,23.469826 290.933716,25.895300 290.933716,28.275942 
	C286.112122,28.559916 285.980438,28.366241 286.207275,21.420887 
z"/>
<path fill="#C0C0C0" opacity="1.000000" stroke="none" 
	d="
M296.987274,21.007652 
	C296.998138,21.171898 297.035004,21.339231 297.015930,21.499920 
	C296.710632,24.069809 298.268158,27.535559 294.268372,28.224199 
	C293.882172,28.290695 292.760651,24.086338 292.417053,21.407854 
	C294.231476,20.969994 295.609375,20.988823 296.987274,21.007652 
z"/>
<path fill="#C0C0C0" opacity="1.000000" stroke="none" 
	d="
M335.218750,27.275707 
	C335.594238,24.750332 332.964844,20.883278 338.536957,20.956310 
	C338.948914,20.969458 339.305084,20.998030 339.633789,21.406931 
	C339.874298,23.859310 339.786072,25.902790 339.697815,27.946270 
	C338.257660,27.807119 336.817474,27.667971 335.218750,27.275707 
z"/>
<path fill="#C0C0C0" opacity="1.000000" stroke="none" 
	d="
M341.872131,20.984745 
	C346.604309,20.257040 346.247681,23.232000 345.943451,26.592175 
	C344.570190,27.412804 343.202332,27.804831 341.490417,27.640381 
	C341.211060,25.049171 341.275787,23.014435 341.340515,20.979698 
	C341.340515,20.979698 341.695129,20.998697 341.872131,20.984745 
z"/>
<path fill="#C0C0C0" opacity="1.000000" stroke="none" 
	d="
M302.986633,21.008224 
	C302.685089,23.711424 304.323669,27.123587 299.402496,28.882139 
	C298.914581,26.404074 298.466949,24.130623 298.452362,21.418659 
	C300.252472,20.989506 301.619568,20.998865 302.986633,21.008224 
z"/>
<path fill="#C0C0C0" opacity="1.000000" stroke="none" 
	d="
M305.756195,20.933792 
	C306.990967,21.053890 307.912354,21.227636 309.083954,21.660597 
	C308.544952,24.277233 310.171326,27.936010 305.239716,28.595703 
	C304.833069,26.307114 304.441864,24.105402 304.116882,21.511549 
	C304.602997,21.075418 305.022919,21.031429 305.756195,20.933792 
z"/>
<path fill="#FFFFFF" opacity="1.000000" stroke="none" 
	d="
M303.223083,20.998859 
	C301.619568,20.998865 300.252472,20.989506 298.477905,21.014061 
	C297.890076,21.036898 297.709717,21.025824 297.258331,21.011200 
	C295.609375,20.988823 294.231476,20.969994 292.441833,20.984922 
	C291.847382,21.019669 291.664703,21.020655 291.207886,21.032995 
	C289.901855,21.008873 288.869995,20.973396 287.451904,20.954401 
	C288.223389,20.471191 289.381165,19.971498 290.779175,19.245775 
	C295.285950,19.437698 299.552490,19.855652 303.875732,20.622379 
	C303.932465,20.971157 303.459534,20.989494 303.223083,20.998859 
z"/>
<path fill="#FFFFFF" opacity="1.000000" stroke="none" 
	d="
M362.268372,31.800781 
	C359.195709,32.085308 355.976532,32.090580 352.399109,31.996899 
	C352.040863,31.897943 352.016571,31.434065 352.009155,31.201626 
	C355.451385,29.756258 358.826874,29.901396 362.268372,31.800781 
z"/>
<path fill="#FFFFFF" opacity="1.000000" stroke="none" 
	d="
M340.920868,20.939812 
	C341.275787,23.014435 341.211060,25.049171 341.224243,27.514980 
	C341.035583,27.952299 340.768982,27.958544 340.100098,27.955528 
	C339.786072,25.902790 339.874298,23.859310 339.812256,21.397724 
	C339.941742,20.953053 340.221497,20.926487 340.920868,20.939812 
z"/>
<path fill="#CBCBCB" opacity="1.000000" stroke="none" 
	d="
M292.415863,17.008930 
	C292.077545,14.121703 290.838379,10.339493 296.510559,11.045170 
	C296.907013,13.996996 297.962097,17.639568 292.415863,17.008930 
z"/>
<path fill="#CBCBCB" opacity="1.000000" stroke="none" 
	d="
M329.076599,11.535119 
	C333.295624,10.280433 334.529968,12.351697 333.999390,16.555677 
	C329.917023,17.667294 328.404419,15.866419 329.076599,11.535119 
z"/>
<path fill="#F0F0F0" opacity="1.000000" stroke="none" 
	d="
M327.944000,943.353149 
	C328.003479,942.381165 328.087738,941.783997 328.172028,941.186829 
	C328.453949,941.186890 328.735870,941.187012 329.017792,941.187073 
	C329.017792,942.902954 329.017792,944.618835 329.026825,946.757080 
	C328.680145,946.028931 328.324463,944.878418 327.944000,943.353149 
z"/>
<path fill="#CDCDCD" opacity="1.000000" stroke="none" 
	d="
M324.149933,944.639282 
	C324.655792,944.345825 325.296906,944.238831 325.937988,944.131836 
	C325.957947,944.363159 325.977905,944.594421 325.997864,944.825745 
	C325.426971,944.825745 324.856049,944.825745 324.149933,944.639282 
z"/>
<path fill="#FFFFFF" opacity="1.000000" stroke="none" 
	d="
M340.347107,12.337975 
	C340.726685,13.959383 340.889099,15.812281 341.051483,17.665178 
	C340.744293,17.694416 340.437103,17.723654 340.129913,17.752892 
	C340.129913,16.025084 340.129913,14.297274 340.347107,12.337975 
z"/>
<path fill="#FFFFFF" opacity="1.000000" stroke="none" 
	d="
M279.997437,17.591881 
	C277.659393,15.462740 277.432922,13.323879 279.698608,11.811440 
	C280.024017,13.572085 280.004578,15.361034 279.997437,17.591881 
z"/>
<path fill="#FFFFFF" opacity="1.000000" stroke="none" 
	d="
M285.900146,12.900146 
	C285.929382,14.358418 285.929382,15.502197 285.929382,16.645977 
	C285.648987,16.649471 285.368591,16.652964 285.088196,16.656458 
	C285.088196,15.383903 285.082611,14.111291 285.095703,12.838871 
	C285.097229,12.689582 285.209290,12.412220 285.257294,12.415009 
	C285.464447,12.427034 285.666779,12.521316 285.900146,12.900146 
z"/>
<path fill="#FFFFFF" opacity="1.000000" stroke="none" 
	d="
M365.961029,770.663269 
	C364.446106,770.238281 362.805298,769.462646 361.038757,768.336548 
	C362.553711,768.761658 364.194427,769.537109 365.961029,770.663269 
z"/>
<path fill="#FFFFFF" opacity="1.000000" stroke="none" 
	d="
M272.026855,192.320724 
	C273.835266,192.718414 275.866608,193.251343 277.663239,194.219696 
	C293.028076,202.501312 309.171387,205.450134 326.637512,203.263382 
	C340.462341,201.532516 352.173187,195.563553 363.820221,188.645721 
	C357.346893,196.144379 348.537323,199.985489 339.502838,202.627014 
	C318.763916,208.690720 298.411987,207.315353 279.068634,196.984344 
	C276.672607,195.704666 274.446045,194.107742 272.026855,192.320724 
z"/>
<path fill="#FFFFFF" opacity="1.000000" stroke="none" 
	d="
M263.580170,184.635529 
	C266.897308,186.796631 269.783752,189.168610 272.346893,191.807968 
	C269.065552,189.665710 266.107513,187.256058 263.580170,184.635529 
z"/>
<path fill="#FFFFFF" opacity="1.000000" stroke="none" 
	d="
M364.332703,189.039200 
	C366.093842,186.728317 368.210724,184.381500 370.674500,181.978058 
	C368.910431,184.282043 366.799438,186.642654 364.332703,189.039200 
z"/>
<path fill="#FFFFFF" opacity="1.000000" stroke="none" 
	d="
M319.915588,122.993835 
	C323.216522,125.627922 324.417480,129.086121 322.042297,132.058990 
	C320.728149,133.703827 317.181396,134.668854 314.960236,134.249557 
	C310.666321,133.438995 310.003815,129.694962 311.459320,126.151657 
	C312.874298,122.706955 315.484314,120.622353 319.915588,122.993835 
z"/>
<path fill="#FFFFFF" opacity="1.000000" stroke="none" 
	d="
M322.999786,828.757935 
	C321.989471,832.896729 319.404144,834.909485 315.804871,833.813599 
	C313.905762,833.235291 311.732269,831.007751 311.178375,829.092407 
	C310.023468,825.098755 312.313507,822.347229 316.104523,822.001221 
	C320.780579,821.574402 322.465485,823.123596 322.999786,828.757935 
z"/>
</svg>